<?xml version="1.0" encoding="utf-8"?>
<!-- Generator: Adobe Illustrator 24.3.0, SVG Export Plug-In . SVG Version: 6.00 Build 0)  -->
<svg version="1.1" id="Layer_1" xmlns="http://www.w3.org/2000/svg" xmlns:xlink="http://www.w3.org/1999/xlink" x="0px" y="0px"
	 viewBox="0 0 81.9 64" style="enable-background:new 0 0 81.9 64;" xml:space="preserve">
<style type="text/css">
	.st0{fill:#999999;}
	.st1{fill:#808080;}
	.st2{fill:#666666;}
	.st3{fill:#4D4D4D;}
	.st4{fill:#333333;}
	.st5{fill:#1A1A1A;}
	.st6{opacity:0.95;}
</style>
<g>
	<path class="st0" d="M14.9,20.1c0,0,1.5-14.2,1.8-17.7c0.1-0.5,0.1-0.8,0.1-0.8l0,0c10.7,0.9,18.6,9.8,17.6,19.7L32.5,39l-0.8-0.1
		C21.4,38,13.9,29.6,14.9,20.1z"/>
	<path class="st1" d="M15.1,25.1c0,0-2.2-14.1-2.7-17.6c-0.1-0.5-0.1-0.8-0.1-0.8l0,0C22.9,5.3,32.8,12.1,34.3,22L37,39.6l-0.8,0.1
		C26,41.1,16.5,34.5,15.1,25.1z"/>
	<path class="st2" d="M14.9,28.8c0,0-6.4-13-8-16.2c-0.2-0.5-0.4-0.7-0.4-0.7l0,0c9.8-4.1,21.4-0.1,25.8,9l8,16.2l-0.8,0.3
		C30.2,41.4,19.2,37.5,14.9,28.8z"/>
	<path class="st3" d="M16.4,32.8c0,0-9.2-11.5-11.4-14.3c-0.3-0.4-0.5-0.6-0.5-0.6l0,0c8.7-5.9,20.9-4.2,27.3,3.8L43.2,36l-0.7,0.5
		C34.2,42.1,22.5,40.5,16.4,32.8z"/>
	<path class="st4" d="M17.1,37.1c0,0-11.5-9.5-14.4-11.8c-0.4-0.3-0.6-0.5-0.6-0.5l0,0c7.2-7.5,19.5-8.1,27.5-1.5l14.4,11.8
		l-0.6,0.6C36.7,42.8,24.9,43.5,17.1,37.1z"/>
	<path class="st5" d="M20.7,39.8c0,0-13.4-7-16.7-8.8c-0.5-0.2-0.7-0.4-0.7-0.4l0,0c5.3-8.7,17.2-11.7,26.6-6.8l16.8,8.8l-0.4,0.7
		C41,41.6,29.6,44.5,20.7,39.8z"/>
	<path class="st6" d="M27.1,42.5c0,0-14.5-4.8-18.1-6c-0.5-0.2-0.8-0.3-0.8-0.3l0,0c3.7-9.4,14.8-14.2,25-10.8l18.1,6.1L51,32.1
		C47.5,41.1,36.8,45.7,27.1,42.5z"/>
	<path d="M81.3,19.4l-22.8-5.4c0,0-8.1-14.3-19.6,1.9c-0.3,0.5-0.6,0.9-0.8,1.4C28.3,37,9.5,61.7,9.5,61.7s49.2-18.3,42.8-39.2
		C72.6,23,81.3,19.4,81.3,19.4z"/>
</g>
</svg>
